<svg width="23" height="20" viewBox="0 0 23 20" fill="none" xmlns="http://www.w3.org/2000/svg">
<path fill-rule="evenodd" clip-rule="evenodd" d="M1.58113 8.60987C7.75513 5.78741 11.8721 3.92667 13.932 3.02765C19.8136 0.460774 21.0357 0.0148807 21.8323 0.000156987C22.0075 -0.00308132 22.3992 0.0424773 22.6529 0.25852C22.8672 0.440943 22.9262 0.687369 22.9544 0.860325C22.9826 1.03328 23.0177 1.42728 22.9898 1.73514C22.6711 5.249 21.2919 13.7762 20.5903 17.7118C20.2935 19.3771 19.7089 19.9354 19.143 19.9901C17.9131 20.1088 16.9792 19.1372 15.788 18.3179C13.924 17.0358 12.8709 16.2377 11.0616 14.9867C8.97061 13.5408 10.3261 12.7462 11.5178 11.4475C11.8296 11.1076 17.2485 5.93584 17.3534 5.46668C17.3665 5.40801 17.3787 5.18929 17.2549 5.0738C17.131 4.9583 16.9483 4.9978 16.8164 5.02921C16.6294 5.07373 13.6517 7.1389 7.88309 11.2247C7.03787 11.8337 6.27229 12.1304 5.58635 12.1149C4.83017 12.0977 3.37557 11.6663 2.29422 11.2974C0.967909 10.8451 -0.0862189 10.6059 0.00557197 9.83761C0.0533823 9.43745 0.578568 9.0282 1.58113 8.60987Z" fill="white"/>
</svg>
